<mxfile host="app.diagrams.net" modified="2023-08-21T05:43:26.773Z" agent="Mozilla/5.0 (Macintosh; Intel Mac OS X 10_15_7) AppleWebKit/537.36 (KHTML, like Gecko) Chrome/111.0.0.0 Safari/537.36" etag="WNBIGMC5l74iKVrXxabp" version="21.6.8" type="github">
  <diagram name="第 1 页" id="SySj6BQXnbQt-aHX0-Jr">
    <mxGraphModel dx="1363" dy="880" grid="1" gridSize="10" guides="1" tooltips="1" connect="1" arrows="1" fold="1" page="1" pageScale="1" pageWidth="827" pageHeight="1169" math="0" shadow="0">
      <root>
        <mxCell id="0" />
        <mxCell id="1" parent="0" />
        <mxCell id="BWJaWsjdaAZU5zBHaCj9-18" style="edgeStyle=orthogonalEdgeStyle;rounded=0;orthogonalLoop=1;jettySize=auto;html=1;" edge="1" parent="1" source="BWJaWsjdaAZU5zBHaCj9-17" target="BWJaWsjdaAZU5zBHaCj9-19">
          <mxGeometry relative="1" as="geometry">
            <mxPoint x="380" y="270" as="targetPoint" />
          </mxGeometry>
        </mxCell>
        <mxCell id="BWJaWsjdaAZU5zBHaCj9-45" value="业务数据触发" style="edgeLabel;html=1;align=center;verticalAlign=middle;resizable=0;points=[];" vertex="1" connectable="0" parent="BWJaWsjdaAZU5zBHaCj9-18">
          <mxGeometry x="-0.1667" y="-1" relative="1" as="geometry">
            <mxPoint as="offset" />
          </mxGeometry>
        </mxCell>
        <mxCell id="BWJaWsjdaAZU5zBHaCj9-17" value="mq" style="rounded=1;whiteSpace=wrap;html=1;" vertex="1" parent="1">
          <mxGeometry x="330" y="60" width="100" height="40" as="geometry" />
        </mxCell>
        <mxCell id="BWJaWsjdaAZU5zBHaCj9-20" style="edgeStyle=orthogonalEdgeStyle;rounded=0;orthogonalLoop=1;jettySize=auto;html=1;entryX=0.5;entryY=0;entryDx=0;entryDy=0;" edge="1" parent="1" source="BWJaWsjdaAZU5zBHaCj9-19" target="BWJaWsjdaAZU5zBHaCj9-21">
          <mxGeometry relative="1" as="geometry">
            <mxPoint x="380" y="300" as="targetPoint" />
          </mxGeometry>
        </mxCell>
        <mxCell id="BWJaWsjdaAZU5zBHaCj9-19" value="处理业务数据" style="rounded=1;whiteSpace=wrap;html=1;" vertex="1" parent="1">
          <mxGeometry x="320" y="170" width="120" height="50" as="geometry" />
        </mxCell>
        <mxCell id="BWJaWsjdaAZU5zBHaCj9-23" style="edgeStyle=orthogonalEdgeStyle;rounded=0;orthogonalLoop=1;jettySize=auto;html=1;entryX=0.5;entryY=0;entryDx=0;entryDy=0;" edge="1" parent="1" source="BWJaWsjdaAZU5zBHaCj9-21" target="BWJaWsjdaAZU5zBHaCj9-24">
          <mxGeometry relative="1" as="geometry">
            <mxPoint x="380" y="370" as="targetPoint" />
          </mxGeometry>
        </mxCell>
        <mxCell id="BWJaWsjdaAZU5zBHaCj9-27" value="匹配规则" style="edgeLabel;html=1;align=center;verticalAlign=middle;resizable=0;points=[];" vertex="1" connectable="0" parent="BWJaWsjdaAZU5zBHaCj9-23">
          <mxGeometry x="-0.08" y="2" relative="1" as="geometry">
            <mxPoint as="offset" />
          </mxGeometry>
        </mxCell>
        <mxCell id="BWJaWsjdaAZU5zBHaCj9-34" style="edgeStyle=orthogonalEdgeStyle;rounded=0;orthogonalLoop=1;jettySize=auto;html=1;dashed=1;" edge="1" parent="1" source="BWJaWsjdaAZU5zBHaCj9-21" target="BWJaWsjdaAZU5zBHaCj9-35">
          <mxGeometry relative="1" as="geometry">
            <mxPoint x="560" y="295" as="targetPoint" />
          </mxGeometry>
        </mxCell>
        <mxCell id="BWJaWsjdaAZU5zBHaCj9-21" value="扫描所有生效&lt;br&gt;任务的触点规则&lt;br&gt;" style="rounded=1;whiteSpace=wrap;html=1;" vertex="1" parent="1">
          <mxGeometry x="317.5" y="279" width="125" height="50" as="geometry" />
        </mxCell>
        <mxCell id="BWJaWsjdaAZU5zBHaCj9-28" style="edgeStyle=orthogonalEdgeStyle;rounded=0;orthogonalLoop=1;jettySize=auto;html=1;" edge="1" parent="1" source="BWJaWsjdaAZU5zBHaCj9-24" target="BWJaWsjdaAZU5zBHaCj9-42">
          <mxGeometry relative="1" as="geometry">
            <mxPoint x="380" y="550" as="targetPoint" />
          </mxGeometry>
        </mxCell>
        <mxCell id="BWJaWsjdaAZU5zBHaCj9-32" value="是" style="edgeLabel;html=1;align=center;verticalAlign=middle;resizable=0;points=[];" vertex="1" connectable="0" parent="BWJaWsjdaAZU5zBHaCj9-28">
          <mxGeometry x="-0.2397" y="4" relative="1" as="geometry">
            <mxPoint as="offset" />
          </mxGeometry>
        </mxCell>
        <mxCell id="BWJaWsjdaAZU5zBHaCj9-30" style="edgeStyle=orthogonalEdgeStyle;rounded=0;orthogonalLoop=1;jettySize=auto;html=1;entryX=0.5;entryY=0;entryDx=0;entryDy=0;" edge="1" parent="1" source="BWJaWsjdaAZU5zBHaCj9-24" target="BWJaWsjdaAZU5zBHaCj9-29">
          <mxGeometry relative="1" as="geometry" />
        </mxCell>
        <mxCell id="BWJaWsjdaAZU5zBHaCj9-31" value="否" style="edgeLabel;html=1;align=center;verticalAlign=middle;resizable=0;points=[];" vertex="1" connectable="0" parent="BWJaWsjdaAZU5zBHaCj9-30">
          <mxGeometry x="-0.3333" y="-1" relative="1" as="geometry">
            <mxPoint as="offset" />
          </mxGeometry>
        </mxCell>
        <mxCell id="BWJaWsjdaAZU5zBHaCj9-24" value="是否匹配规则？" style="rhombus;whiteSpace=wrap;html=1;" vertex="1" parent="1">
          <mxGeometry x="330" y="410" width="100" height="60" as="geometry" />
        </mxCell>
        <mxCell id="BWJaWsjdaAZU5zBHaCj9-29" value="结束" style="ellipse;whiteSpace=wrap;html=1;aspect=fixed;" vertex="1" parent="1">
          <mxGeometry x="170" y="550" width="50" height="50" as="geometry" />
        </mxCell>
        <mxCell id="BWJaWsjdaAZU5zBHaCj9-35" value="1. 根据业务线匹配&lt;br style=&quot;border-color: var(--border-color);&quot;&gt;2. 根据生效日期匹配&lt;br&gt;优化点：任务数量较多可考虑缓存" style="rounded=0;whiteSpace=wrap;html=1;align=left;fillColor=none;strokeWidth=0;strokeColor=none;spacingLeft=7;" vertex="1" parent="1">
          <mxGeometry x="530" y="269" width="140" height="70" as="geometry" />
        </mxCell>
        <mxCell id="BWJaWsjdaAZU5zBHaCj9-44" style="edgeStyle=orthogonalEdgeStyle;rounded=0;orthogonalLoop=1;jettySize=auto;html=1;entryX=0;entryY=0.5;entryDx=0;entryDy=0;" edge="1" parent="1" source="BWJaWsjdaAZU5zBHaCj9-42" target="BWJaWsjdaAZU5zBHaCj9-43">
          <mxGeometry relative="1" as="geometry" />
        </mxCell>
        <mxCell id="BWJaWsjdaAZU5zBHaCj9-47" style="edgeStyle=orthogonalEdgeStyle;rounded=0;orthogonalLoop=1;jettySize=auto;html=1;entryX=0.5;entryY=0;entryDx=0;entryDy=0;" edge="1" parent="1" source="BWJaWsjdaAZU5zBHaCj9-42" target="BWJaWsjdaAZU5zBHaCj9-50">
          <mxGeometry relative="1" as="geometry">
            <mxPoint x="380" y="650" as="targetPoint" />
            <Array as="points">
              <mxPoint x="380" y="620" />
              <mxPoint x="381" y="620" />
            </Array>
          </mxGeometry>
        </mxCell>
        <mxCell id="BWJaWsjdaAZU5zBHaCj9-52" value="匹配" style="edgeLabel;html=1;align=center;verticalAlign=middle;resizable=0;points=[];" vertex="1" connectable="0" parent="BWJaWsjdaAZU5zBHaCj9-47">
          <mxGeometry x="-0.1478" y="1" relative="1" as="geometry">
            <mxPoint as="offset" />
          </mxGeometry>
        </mxCell>
        <mxCell id="BWJaWsjdaAZU5zBHaCj9-42" value="扫描所有可执行的&lt;br&gt;的子任务" style="rounded=1;whiteSpace=wrap;html=1;" vertex="1" parent="1">
          <mxGeometry x="317.5" y="540" width="125" height="50" as="geometry" />
        </mxCell>
        <mxCell id="BWJaWsjdaAZU5zBHaCj9-43" value="1. 根据生效日期匹配&lt;br style=&quot;border-color: var(--border-color);&quot;&gt;2. 根据是否逾期匹配" style="rounded=0;whiteSpace=wrap;html=1;align=left;fillColor=none;strokeWidth=0;strokeColor=none;spacingLeft=9;" vertex="1" parent="1">
          <mxGeometry x="540" y="540" width="140" height="50" as="geometry" />
        </mxCell>
        <mxCell id="BWJaWsjdaAZU5zBHaCj9-51" style="edgeStyle=orthogonalEdgeStyle;rounded=0;orthogonalLoop=1;jettySize=auto;html=1;entryX=0.5;entryY=1;entryDx=0;entryDy=0;" edge="1" parent="1" source="BWJaWsjdaAZU5zBHaCj9-50" target="BWJaWsjdaAZU5zBHaCj9-29">
          <mxGeometry relative="1" as="geometry" />
        </mxCell>
        <mxCell id="BWJaWsjdaAZU5zBHaCj9-53" value="否" style="edgeLabel;html=1;align=center;verticalAlign=middle;resizable=0;points=[];" vertex="1" connectable="0" parent="BWJaWsjdaAZU5zBHaCj9-51">
          <mxGeometry x="-0.6333" relative="1" as="geometry">
            <mxPoint as="offset" />
          </mxGeometry>
        </mxCell>
        <mxCell id="BWJaWsjdaAZU5zBHaCj9-54" style="edgeStyle=orthogonalEdgeStyle;rounded=0;orthogonalLoop=1;jettySize=auto;html=1;entryX=0.5;entryY=0;entryDx=0;entryDy=0;" edge="1" parent="1" source="BWJaWsjdaAZU5zBHaCj9-50" target="BWJaWsjdaAZU5zBHaCj9-55">
          <mxGeometry relative="1" as="geometry">
            <mxPoint x="380" y="790" as="targetPoint" />
          </mxGeometry>
        </mxCell>
        <mxCell id="BWJaWsjdaAZU5zBHaCj9-50" value="是否存在可&lt;br&gt;执行的任务？" style="rhombus;whiteSpace=wrap;html=1;" vertex="1" parent="1">
          <mxGeometry x="315" y="650" width="130" height="80" as="geometry" />
        </mxCell>
        <mxCell id="BWJaWsjdaAZU5zBHaCj9-63" style="edgeStyle=orthogonalEdgeStyle;rounded=0;orthogonalLoop=1;jettySize=auto;html=1;entryX=0.5;entryY=0;entryDx=0;entryDy=0;" edge="1" parent="1" source="BWJaWsjdaAZU5zBHaCj9-55" target="BWJaWsjdaAZU5zBHaCj9-64">
          <mxGeometry relative="1" as="geometry">
            <mxPoint x="380" y="880" as="targetPoint" />
          </mxGeometry>
        </mxCell>
        <mxCell id="BWJaWsjdaAZU5zBHaCj9-55" value="添加执行人任务、状态默认为未完成" style="rounded=1;whiteSpace=wrap;html=1;" vertex="1" parent="1">
          <mxGeometry x="317.5" y="780" width="125" height="50" as="geometry" />
        </mxCell>
        <mxCell id="BWJaWsjdaAZU5zBHaCj9-58" value="结束" style="ellipse;whiteSpace=wrap;html=1;aspect=fixed;" vertex="1" parent="1">
          <mxGeometry x="355" y="970" width="50" height="50" as="geometry" />
        </mxCell>
        <mxCell id="BWJaWsjdaAZU5zBHaCj9-65" style="edgeStyle=orthogonalEdgeStyle;rounded=0;orthogonalLoop=1;jettySize=auto;html=1;" edge="1" parent="1" source="BWJaWsjdaAZU5zBHaCj9-64" target="BWJaWsjdaAZU5zBHaCj9-58">
          <mxGeometry relative="1" as="geometry" />
        </mxCell>
        <mxCell id="BWJaWsjdaAZU5zBHaCj9-64" value="添加执行人工作&lt;br&gt;对象信息" style="rounded=1;whiteSpace=wrap;html=1;" vertex="1" parent="1">
          <mxGeometry x="317.5" y="880" width="125" height="50" as="geometry" />
        </mxCell>
      </root>
    </mxGraphModel>
  </diagram>
</mxfile>
